<?xml version="1.0"?><svg xmlns="http://www.w3.org/2000/svg" width="1000" height="1000" viewBox="0 0 1000 1000"><path d="m1000 83.3v916.7h-1000v-916.7h125v41.7c0 46 37.4 83.3 83.3 83.3s83.4-37.3 83.4-83.3v-41.7h416.6v41.7c0 46 37.4 83.3 83.4 83.3s83.3-37.3 83.3-83.3v-41.7h125z m-83.3 250h-833.4v583.4h833.4v-583.4z m-83.4-291.6a41.7 41.7 0 1 0-83.3 0v83.3a41.7 41.7 0 1 0 83.3 0v-83.3z m-583.3 83.3a41.7 41.7 0 1 1-83.3 0v-83.3a41.7 41.7 0 1 1 83.3 0v83.3z m278.6 561.7c0-33.4-17.4-59.5-46.2-70.6 22.1-11 34.9-33.6 34.9-62.6 0-56.1-54.7-89.6-107.5-89.6-61.6 0-108 38.6-110.9 115.2h68.6c-0.6-31.7 11.3-54.8 42.7-54.8 18.7 0 38.8 11.3 38.8 36.2 0 31.4-34 35.9-65.2 33.2v53.3c44.4 0 71 2.8 71 41 0 30.2-22.9 43.7-45.5 43.7-34.3 0-48.3-25.6-49.5-60.5h-68c-1.4 78.9 46.4 120.5 118.4 120.5 64.3 0 118.5-39.3 118.5-104.9z m179.7 105v-321.6h-58c-7.2 48.1-41.4 62.1-90.4 60.8v56.1h77.1v204.7h71.3z"></path></svg>