<?xml version="1.0"?><svg xmlns="http://www.w3.org/2000/svg" width="1000" height="1000" viewBox="0 0 1000 1000"><path d="m1000 1000h-116l-44.6-125h-203.1l-44.9 125h-112.4l205.9-541.7h108.5l206.6 541.7z m-190.5-211.2l-71.1-204.3-71.3 204.3h142.4z m-385.5-533.5c5.2-20.2 8.3-35.5 11.2-50.5l-91.6-17.8c-1.5 7.7-4.2 22.2-9.1 41.7a397 397 0 0 0-97.2-1.7c0.8-22.4 2.2-44.3 4.1-65.4h102.4v-86.8h-90.2c4.4-22.1 8.3-35.5 12-48l-89.3-26.8c-6.7 21.9-12.1 43.4-17.7 74.8h-102.1v86.7h91a1211.8 1211.8 0 0 0-4.3 86.6c-100.5 36.9-143.2 107.3-143.2 171.1 0 75.4 59.5 141.6 153.5 133.1 116.8-10.6 194.7-98.8 240.4-207.3 47.3 27.3 67 73.1 49.2 115.5-16.5 39.2-65 76.6-157.7 74.7v93.4c102.9 1.6 204.1-37.5 243.8-131.9 38.7-92.2-5.5-193.1-105.2-241.4z m-120.5 63.8c-14.6 32.3-33.8 64.4-58.2 89.6a937.8 937.8 0 0 1-7.6-87.9 315 315 0 0 1 65.8-1.7z m-157.9 30.2c2.6 39.4 7.1 75.7 13.2 108.2-83.1 15.2-86.5-66.8-13.2-108.2z m468.2-72.8l-86.5-230.5 225.6-46-40.6 77.8c125 100.8 171.5 235.2 188.8 338.9-72.3-121.4-159.4-186.6-245.3-221.7l-42.1 81.5z m-329 449.2l82.7 232-226.2 42.3 41.9-77.2c-123.3-102.7-167.5-235.5-183.2-339.5 70.4 122.5 156.3 186.8 241.4 223.4l43.4-80.9z m449.8-251.1"></path></svg>