<?xml version="1.0"?><svg width="1000" height="1000" viewBox="0 0 1000 1000" xmlns="http://www.w3.org/2000/svg"><title></title><path d="m822.2 410.9c40.5 0 73.7-32.9 73.7-74 0-40.6-33.2-73.6-73.7-73.6-40.7 0-73.8 33-73.8 73.6 0 41.1 33.1 74 73.8 74m-644 0c40.7 0 73.5-32.9 73.5-74 0-40.6-32.8-73.6-73.5-73.6-41 0-74 33-74 73.6a73.7 73.7 0 0 0 74 74m819.5 276.6l-47.2-203.8c-7.1-36.8-30-67-66.6-67h-4.7c-15.5 13.3-35.1 22.2-57 22.2-22.2 0-41.7-8.9-57.1-22.2h-4.5c-18.1 0-34 7.2-46 18.7 0 0 79.3 318 79.3 319.1h136.9c37.1 0 79.8-24.6 66.9-67m-757.8-270.8h-4.7c-15.4 13.4-35.1 22.2-57 22.2-22.2 0-41.8-8.8-57.3-22.2h-4.6c-36.7 0-59.1 31.3-66.9 67l-47.1 203.8c-7.1 41.9 30.1 67 66.8 67h137.5c-0.1-1.1 79.2-319.1 79.2-319.1-12-11.5-28.2-18.7-45.9-18.7m408.2 413.1h-295.9c-42.3 0-85.9-32.6-77.6-76.5l63.4-275.7c7.3-30.2 27.1-80.9 78.1-80.9 23.9 19.8 53.6 30.5 84.1 30.5 30.1 0 59.7-10.7 83.9-30.5 37.5 0.1 63.7 27.4 77.8 80.8l64.1 275.9c8.7 44.4-35.4 76.4-77.8 76.4z m39.5-358.7c-17.4-66-53.3-100.9-103.6-100.9h-9.7l-3.8 3.3c-20.3 17.8-44.6 27.2-70.3 27.2-25.7 0-50.7-9.6-70.4-27.1l-3.8-3.4h-9.9c-50.5 0-88.3 36.9-103.9 101.3l-63.8 277.4-0.3 3c-10.2 57.9 46.7 104.5 104.1 104.5h295.9c57.6 0 118.3-42.7 104.4-104.5l-64.9-280.8z m-187.4-302.7c48 0 87 39.2 87 87.4 0 48.1-39 87.1-87 87.1s-87.1-39-87.1-87.1c0-48.2 39.1-87.4 87.1-87.4m0 201.1c62.6 0 113.5-51 113.5-113.7 0-62.8-50.9-113.9-113.5-113.9s-113.5 51.1-113.5 113.9c0 62.7 50.9 113.7 113.5 113.7" fill="#010202" fill-rule="evenodd"></path></svg>