<?xml version="1.0"?><svg width="1000" height="1000" viewBox="0 0 1000 1000" xmlns="http://www.w3.org/2000/svg"><title></title><path d="m290.7 395.3v209.4c0 115.1 94.2 209.3 209.3 209.3s209.3-94.2 209.3-209.3v-209.4c0-115.1-94.2-209.3-209.3-209.3s-209.3 94.2-209.3 209.3z m209.3-162.7c89.5 0 162.8 73.2 162.8 162.7v209.4c0 89.5-73.3 162.7-162.8 162.7s-162.8-73.2-162.8-162.7v-209.4c0-89.5 73.3-162.7 162.8-162.7z m0 197.6c12.8 0 23.3-10.4 23.3-23.2v-69.8c0-12.8-10.5-23.2-23.3-23.2s-23.3 10.4-23.3 23.2v69.8c0 12.8 10.5 23.2 23.3 23.2z m-16.3 562.8c4.7 4.7 10.5 7 16.3 7 5.8 0 11.6-2.3 16.3-7l58.1-58.1c9.3-9.3 9.3-23.3 0-32.6s-23.2-9.3-32.5 0l-41.9 41.9-41.9-41.9c-9.3-9.3-23.2-9.3-32.5 0s-9.3 23.3 0 32.6l58.1 58.1z m0-986l-58.1 58.1c-9.3 9.3-9.3 23.3 0 32.6 4.6 4.6 10.4 7 16.3 7 5.8 0 11.6-2.4 16.2-7l41.9-41.9 41.9 41.9c4.6 4.6 10.4 7 16.2 7 5.9 0 11.7-2.4 16.3-7 9.3-9.3 9.3-23.3 0-32.6l-58.1-58.1c-9.3-9.3-23.3-9.3-32.6 0z" fill-rule="evenodd"></path></svg>