<?xml version="1.0"?><svg width="1000" height="1000" viewBox="0 0 1000 1000" xmlns="http://www.w3.org/2000/svg"><title></title><path d="m242.9 485.7v257.2c0 141.4 115.7 257.1 257.1 257.1s257.1-115.7 257.1-257.1v-257.2c0-141.4-115.7-257.1-257.1-257.1s-257.1 115.7-257.1 257.1z m257.1-200c110 0 200 90 200 200v257.2c0 110-90 200-200 200s-200-90-200-200v-257.2c0-110 90-200 200-200z m0 242.9c15.7 0 28.6-12.9 28.6-28.6v-85.7c0-15.7-12.9-28.6-28.6-28.6s-28.6 12.9-28.6 28.6v85.7c0 15.7 12.9 28.6 28.6 28.6z m-20-520l-71.4 71.4c-11.5 11.4-11.5 28.6 0 40 5.7 5.7 12.8 8.6 20 8.6 7.1 0 14.3-2.9 20-8.6l51.4-51.4 51.4 51.4c5.7 5.7 12.9 8.6 20 8.6 7.2 0 14.3-2.9 20-8.6 11.5-11.4 11.5-28.6 0-40l-71.4-71.4c-11.4-11.5-28.6-11.5-40 0z" fill-rule="evenodd"></path></svg>