<?xml version="1.0"?><svg width="1000" height="1000" viewBox="0 0 1000 1000" xmlns="http://www.w3.org/2000/svg"><title></title><path d="m500 0c276.1 0 500 223.9 500 500s-223.9 500-500 500-500-223.9-500-500 223.9-500 500-500z m0.5 436c26.2 0 47.5-86.4 47.5-193s-21.3-193-47.5-193-47.5 86.4-47.5 193 21.3 193 47.5 193z m0 514c26.2 0 47.5-86.4 47.5-193s-21.3-193-47.5-193-47.5 86.4-47.5 193 21.3 193 47.5 193z m-64.5-449.5c0-26.2-86.4-47.5-193-47.5s-193 21.3-193 47.5 86.4 47.5 193 47.5 193-21.3 193-47.5z m514 0c0-26.2-86.4-47.5-193-47.5s-193 21.3-193 47.5 86.4 47.5 193 47.5 193-21.3 193-47.5z m-404.4-45.4c18.6 18.6 94.7-27.5 170.1-102.9 75.3-75.4 121.4-151.5 102.9-170-18.6-18.6-94.7 27.5-170.1 102.8-75.4 75.4-121.4 151.6-102.9 170.1z m-363.4 363.4c18.5 18.6 94.6-27.5 170-102.8 75.4-75.4 121.4-151.5 102.9-170.1-18.6-18.5-94.7 27.5-170.1 102.9-75.3 75.4-121.4 151.5-102.8 170z m272.2-363.4c18.5-18.5-27.5-94.7-102.9-170.1-75.4-75.3-151.5-121.4-170.1-102.8-18.5 18.5 27.6 94.6 102.9 170 75.4 75.4 151.5 121.4 170.1 102.9z m363.4 363.4c18.6-18.5-27.5-94.6-102.8-170-75.4-75.4-151.5-121.4-170.1-102.9-18.5 18.6 27.5 94.7 102.9 170.1 75.4 75.3 151.5 121.4 170 102.8z"></path></svg>