<?xml version="1.0"?><svg viewBox="0 0 1000 1000" width="1000" height="1000" xmlns="http://www.w3.org/2000/svg"><path d="m979 427c-55.8-71.9-128.2-131.3-209.2-172-82.7-41.4-171.7-62.9-264.5-64-2.6-0.1-12.9-0.1-15.4 0-92.9 1.1-181.9 22.6-264.6 64-81 40.7-153.3 100.1-209.2 172-21.5 27.7-21.5 66.4 0 94.1 55.9 71.9 128.2 131.4 209.2 172 82.7 41.5 171.7 63 264.6 64.1 2.5 0.1 12.8 0.1 15.4 0 92.9-1.1 181.8-22.6 264.5-64.1 81-40.6 153.4-100.1 209.2-172 21.5-27.7 21.5-66.4 0-94.1z m-735.6 229.7c-75.6-37.9-143.2-93.4-195.3-160.6a35.9 35.9 0 0 1 0-44.1c52.1-67.1 119.7-122.7 195.3-160.6a569.8 569.8 0 0 1 65.8-28c-57.5 51.9-93.7 127.1-93.7 210.7 0 83.5 36.2 158.7 93.7 210.6a569.7 569.7 0 0 1-65.8-28z m254.2 59.9c-133.2 0-241.6-108.8-241.6-242.5 0-133.8 108.4-242.6 241.6-242.6s241.6 108.8 241.6 242.6c0 133.7-108.4 242.5-241.6 242.5z m449.5-220.5c-52.2 67.2-119.7 122.7-195.4 160.6-21.4 10.8-43.4 20.1-65.7 27.9 57.5-51.9 93.7-127 93.7-210.5 0-83.6-36.3-158.8-93.8-210.7a569.7 569.7 0 0 1 65.8 28c75.7 37.9 143.2 93.5 195.4 160.6a35.9 35.9 0 0 1 0 44.1z m-449.5-125.8c-57 0-103.4 46.5-103.4 103.8 0 57.2 46.4 103.8 103.4 103.8 57 0 103.4-46.6 103.4-103.8 0-57.3-46.4-103.8-103.4-103.8z m0 166.9c-34.7 0-62.9-28.3-62.9-63.1 0-34.9 28.2-63.2 62.9-63.2s62.9 28.3 62.9 63.2c0 34.8-28.2 63.1-62.9 63.1z"></path></svg>