<?xml version="1.0"?><svg viewBox="0 0 1000 1000" width="1000" height="1000" xmlns="http://www.w3.org/2000/svg"><path d="m250.1 374h24.9c11.9 0 20.7-3 26.4-8.9 5.7-5.9 8.6-13.8 8.6-23.6 0-9.5-2.8-16.9-8.5-22.2-5.7-5.3-13.5-7.9-23.4-7.9-9 0-16.5 2.5-22.5 7.4s-9.1 11.3-9.1 19.2h-46.8c0-12.3 3.3-23.3 10-33.1 6.6-9.8 15.9-17.4 27.8-22.9s25.1-8.3 39.4-8.3c24.9 0 44.5 6 58.6 17.9 14.1 11.9 21.2 28.4 21.2 49.3 0 10.8-3.3 20.7-9.9 29.8-6.6 9.1-15.2 16-25.9 20.9 13.3 4.7 23.2 11.9 29.7 21.4 6.5 9.5 9.8 20.7 9.8 33.7 0 20.9-7.6 37.7-22.9 50.3-15.3 12.6-35.5 18.9-60.6 18.9-23.5 0-42.8-6.2-57.7-18.6-14.9-12.4-22.4-28.8-22.4-49.2h46.8c0 8.8 3.3 16.1 10 21.7 6.6 5.6 14.8 8.4 24.5 8.4 11.1 0 19.8-2.9 26.1-8.8 6.3-5.9 9.5-13.7 9.5-23.4 0-23.5-13-35.3-38.9-35.3h-24.8v-36.7z m269.6-99.6v38.6h-4.5c-21.2 0.3-38.2 5.8-51.1 16.5s-20.7 25.5-23.3 44.5c12.5-12.7 28.3-19.1 47.4-19.1 20.5 0 36.8 7.3 48.9 22 12.1 14.7 18.1 34 18.1 57.9 0 15.3-3.3 29.2-10 41.6-6.6 12.4-16 22.1-28.2 29-12.1 6.9-25.9 10.4-41.2 10.4-24.8 0-44.9-8.6-60.1-25.9-15.3-17.3-22.9-40.3-22.9-69.1v-16.8c0-25.6 4.8-48.2 14.5-67.7s23.5-34.7 41.6-45.5c18.1-10.7 39-16.2 62.9-16.3h7.9z m-45.7 118.2c-7.6 0-14.4 2-20.6 5.9-6.2 3.9-10.7 9.1-13.6 15.6v14.2c0 15.6 3.1 27.8 9.2 36.6 6.2 8.8 14.8 13.2 25.9 13.2 10 0 18.2-4 24.4-11.9 6.2-7.9 9.3-18.2 9.3-30.8 0-12.8-3.1-23.2-9.4-31-6.2-7.9-14.6-11.8-25.2-11.8z m267.6 22.5c0 32.6-6.7 57.5-20.2 74.8-13.5 17.3-33.2 25.9-59.2 25.9-25.7 0-45.3-8.5-58.9-25.4-13.6-16.9-20.6-41.2-20.9-72.8v-43.4c0-32.9 6.8-57.9 20.5-74.9 13.6-17 33.3-25.6 59-25.6 25.7 0 45.3 8.4 58.9 25.3 13.6 16.9 20.6 41.1 20.9 72.8v43.3z m-46.8-47.7c0-19.5-2.7-33.8-8-42.7-5.3-8.9-13.7-13.4-25-13.4-11 0-19.1 4.2-24.4 12.7-5.2 8.5-8 21.7-8.3 39.8v57.4c0 19.2 2.6 33.5 7.8 42.9s13.6 14 25.2 14c11.4 0 19.7-4.5 24.8-13.4 5.1-9 7.7-22.7 7.9-41.2v-56.1z m82.7-49.1c0-12.3 4.4-22.8 13.1-31.6 8.7-8.7 19-13.1 30.9-13.1 11.8 0 21.9 4.3 30.5 13 8.6 8.7 12.9 19.2 12.9 31.6 0 12.4-4.3 22.9-12.9 31.3-8.6 8.5-18.7 12.7-30.5 12.7-11.7 0-21.9-4.2-30.8-12.7-8.8-8.3-13.2-18.8-13.2-31.2z m44 20.1c5.7 0 10.4-1.9 14.2-5.7 3.7-3.8 5.6-8.6 5.6-14.3 0-5.6-1.9-10.5-5.6-14.6-3.7-4.1-8.4-6.2-14.2-6.2-5.7 0-10.5 2.1-14.4 6.2-3.9 4.1-5.8 9-5.8 14.6s2 10.4 5.9 14.2c4 3.8 8.7 5.8 14.3 5.8z m75.9 32.3c34.4 28.7 54 61.6 54 96.6 0 112.4-202.1 203.5-451.3 203.5s-451.4-91.1-451.4-203.6c0-35 19.5-67.8 54-96.6-61 37.1-97.1 83-97.1 132.7 0 123.2 221.4 223 494.5 223s494.5-99.8 494.5-223c-0.1-49.6-36.2-95.6-97.2-132.6z"></path></svg>