<?xml version="1.0"?><svg width="1000" height="1000" viewBox="0 0 1000 1000" xmlns="http://www.w3.org/2000/svg"><path d="m1429.1 3291.7c-23.3-23.3-35-50.2-35-80.5 0-30.3 11.7-57.2 35-80.5l1375.5-1375.5-1375.5-1375.5c-23.3-23.3-35-50.2-35-80.5 0-30.4 11.7-57.2 35-80.5l175-175c23.3-23.3 50.2-34.9 80.5-34.9 30.3 0 57.1 11.7 80.5 34.9l1631 1631.1c23.3 23.3 34.9 50.1 34.9 80.4s-11.6 57.2-34.9 80.5l-1631 1631c-23.3 23.3-50.2 35-80.6 35-30.2 0-57.1-11.7-80.4-35l-175-175z m622.9-1616.9c23.4 23.3 35.1 50.1 35.1 80.4s-11.7 57.2-35.1 80.5l-1630.9 1631c-23.4 23.3-50.2 35-80.6 35-30.3 0-57.1-11.7-80.4-35l-175-175c-23.4-23.3-35-50.2-35-80.5 0-30.3 11.7-57.2 35-80.5l1375.5-1375.5-1375.5-1375.5c-23.4-23.3-35-50.2-35-80.5 0-30.4 11.6-57.2 35-80.5l175-175c23.3-23.3 50.1-34.9 80.4-34.9 30.4 0 57.2 11.7 80.6 34.9l1630.9 1631.1z"></path></svg>