<?xml version="1.0"?><svg width="1000" height="1000" viewBox="0 0 1000 1000" xmlns="http://www.w3.org/2000/svg"><path d="m2052 3291.7c23.4-23.3 35-50.2 35-80.5 0-30.3-11.6-57.2-35-80.5l-1375.5-1375.5 1375.5-1375.5c23.4-23.3 35-50.2 35-80.5 0-30.4-11.6-57.2-35-80.5l-175-175c-23.3-23.3-50.2-34.9-80.4-34.9-30.4 0-57.2 11.7-80.5 34.9l-1631 1631.1c-23.4 23.3-35 50.1-35 80.4s11.6 57.2 35 80.5l1630.9 1631c23.4 23.3 50.2 35 80.6 35 30.2 0 57.1-11.7 80.4-35l175-175z m-622.9-1616.9c-23.4 23.3-35 50.1-35 80.4s11.7 57.2 35 80.5l1631 1631c23.3 23.3 50.1 35 80.5 35 30.3 0 57.1-11.7 80.5-35l175-175c23.3-23.3 34.9-50.2 34.9-80.5 0-30.3-11.7-57.2-34.9-80.5l-1375.6-1375.5 1375.6-1375.5c23.3-23.3 34.9-50.2 34.9-80.5 0-30.4-11.6-57.2-34.9-80.5l-175-175c-23.4-23.3-50.2-34.9-80.5-34.9-30.4 0-57.2 11.7-80.5 34.9l-1631 1631.1z"></path></svg>