<?xml version="1.0"?><svg width="1000" height="1000" viewBox="0 0 1000 1000" xmlns="http://www.w3.org/2000/svg"><path d="m210.9 1413.3c23.4-23.4 50.4-35.1 80.8-35.1 30.5 0 57.5 11.7 80.9 35.1l1381.5 1381.6 1381.6-1381.6c23.4-23.4 50.4-35.1 80.8-35.1 30.5 0 57.5 11.7 80.9 35.1l175.7 175.8c23.5 23.4 35.1 50.4 35.1 80.8 0 30.5-11.7 57.4-35.1 80.9l-1638.2 1638.1c-23.4 23.5-50.3 35.1-80.8 35.1s-57.4-11.7-80.8-35.1l-1638.1-1638.1c-23.5-23.5-35.2-50.4-35.2-80.9 0-30.4 11.7-57.4 35.2-80.8l175.7-175.8z m1624 625.7c-23.4 23.5-50.3 35.2-80.8 35.2s-57.4-11.8-80.8-35.2l-1638.1-1638.1c-23.5-23.5-35.2-50.4-35.2-80.9 0-30.4 11.7-57.4 35.2-80.8l175.7-175.8c23.4-23.4 50.4-35.1 80.8-35.1 30.5 0 57.5 11.7 80.9 35.1l1381.5 1381.6 1381.6-1381.6c23.4-23.4 50.4-35.1 80.8-35.1 30.5 0 57.5 11.6 80.9 35.1l175.7 175.8c23.5 23.4 35.1 50.4 35.1 80.8 0 30.5-11.7 57.4-35.1 80.9l-1638.2 1638.1z"></path></svg>