<?xml version="1.0"?><svg width="1000" height="1000" xmlns="http://www.w3.org/2000/svg" viewBox="0 0 1000 1000"><path d="m977.2 332l-74.6-74c-22.1 22.1-49 33.2-80.6 33.2-31.6 0-58.4-11.1-80.6-33.2-22.1-22.1-33.1-49-33.1-80.6 0-31.6 11-58.5 33.1-80.6l-74-74c-14.7-14.6-32.5-21.9-53.6-21.9-21.2 0-39 7.3-53.7 21.9l-537.3 536.7c-14.6 14.7-22 32.5-22 53.7 0 21.1 7.4 39 22 53.6l74 74.6c22.2-22.1 49-33.1 80.6-33.1 31.6 0 58.5 11 80.6 33.1 22.1 22.1 33.2 49 33.2 80.6s-11.1 58.4-33.2 80.6l74.6 74.6c14.7 14.6 32.5 21.9 53.7 21.9 21.1 0 39-7.3 53.6-21.9l537.3-537.9c14.7-14.6 21.9-32.5 21.9-53.6 0-21.2-7.3-39-21.9-53.7z m-160.5 118.5l-366.2 366.2c-7.1 7.1-16 10.6-26.6 10.6-10.7 0-19.6-3.5-26.7-10.6l-214.5-214.5c-7.5-7.5-11.2-16.4-11.2-26.7 0-10.2 3.7-19.1 11.2-26.6l366.2-366.2c7.1-7.1 16-10.6 26.7-10.6 10.6 0 19.5 3.5 26.6 10.6l214.5 214.5c7.5 7.5 11.2 16.4 11.2 26.7 0 10.2-3.7 19.1-11.2 26.6z m-241.1-213.8l187.2 187.2-338.9 338.9-187.2-187.3 338.9-338.8z"></path></svg>