<svg width="161" height="164" viewBox="0 0 161 164" xmlns="http://www.w3.org/2000/svg" xmlns:xlink="http://www.w3.org/1999/xlink"><title>google</title><defs><path d="M0 .307v31.725h44.125c-1.895 10.25-7.67 18.942-16.354 24.755V77.36h26.505C69.773 63.083 78.72 42.054 78.72 17.09c0-5.813-.52-11.407-1.485-16.783H0z" id="a"/><path d="M.72.47v21.246C14.22 48.52 41.937 66.89 74 66.89c22.14 0 40.7-7.345 54.275-19.863L101.77 26.454C94.42 31.374 85.035 34.27 74 34.27c-21.356 0-39.442-14.422-45.884-33.8H.72z" id="c"/><path d="M8.72.738A82.008 82.008 0 0 0 0 37.556c0 13.23 3.17 25.748 8.72 36.827l27.396-21.247c-1.64-4.92-2.578-10.168-2.578-15.58 0-5.412.938-10.66 2.578-15.58V.738H8.72z" id="e"/><path d="M.72 45.182L28.115 66.42C34.558 47.04 52.644 32.618 74 32.618c12.045 0 22.85 4.127 31.342 12.254l23.516-23.516C114.672 8.118 96.104 0 74 0 41.938 0 14.222 18.368.72 45.182z" id="g"/></defs><g fill="none" fill-rule="evenodd"><g transform="translate(82 66.778)"><mask id="b" fill="#fff"><use xlink:href="#a"/></mask><path fill="#3E82F1" mask="url(#b)" d="M-45.556 122.916h169.832V-45.24H-45.556z"/></g><g transform="translate(8 97.11)"><mask id="d" fill="#fff"><use xlink:href="#c"/></mask><path fill="#32A753" mask="url(#d)" d="M-44.836 112.444H173.82v-157.53H-44.835z"/></g><g transform="translate(0 44.444)"><mask id="f" fill="#fff"><use xlink:href="#e"/></mask><path fill="#F9BB00" mask="url(#f)" d="M-45.556 119.938H81.672V-44.827H-45.556z"/></g><g transform="translate(8)"><mask id="h" fill="#fff"><use xlink:href="#g"/></mask><path fill="#E74133" mask="url(#h)" d="M-44.836 111.976h219.26V-45.556h-219.26z"/></g></g></svg>